<?xml version="1.0" encoding="utf-8"?>
<!-- Svg Vector Icons : http://www.onlinewebfonts.com/icon -->
<!DOCTYPE svg PUBLIC "-//W3C//DTD SVG 1.1//EN" "http://www.w3.org/Graphics/SVG/1.1/DTD/svg11.dtd">
<svg version="1.1" xmlns="http://www.w3.org/2000/svg" xmlns:xlink="http://www.w3.org/1999/xlink" style="background-color: purple" x="0px" y="0px" viewBox="0 0 500 500" enable-background="new 0 0 1000 1000" xml:space="preserve">
<metadata> Svg Vector Icons : http://www.onlinewebfonts.com/icon </metadata>
<g><g transform="translate(0.000000,480.000000) scale(0.100000,-0.100000)"><path fill="black" d="M1198.7,4374.6C1103,4349.7,944.1,4254,882.9,4187c-30.6-36.4-78.5-109.1-107.2-164.6c-44-86.1-51.7-128.2-59.3-323.5l-7.7-225.9h155h155v197.1c0,287.1,67,392.4,264.1,411.5c126.3,11.5,183.8-23,333.1-191.4c283.3-321.6,415.3-407.7,627.8-407.7c210.5,0,350.3,90,620.2,400c132.1,153.1,206.7,202.9,298.6,202.9s166.5-49.8,298.6-202.9c268-310.1,407.7-400,620.2-400c164.6,0,302.4,67,444.1,216.3c59.3,59.3,160.8,166.5,229.7,237.4c84.2,88,143.6,134,183.7,141.6l61.3,13.4v151.2v153.1l-70.8-11.5c-178-32.5-317.7-134-549.3-402c-132.1-153.1-206.7-202.9-298.6-202.9s-166.5,49.8-298.6,202.9c-269.9,310.1-409.6,400-620.2,400c-212.5,0-352.2-90-620.2-400c-132.1-153.1-206.7-202.9-298.6-202.9s-166.5,49.8-298.6,202.9c-172.3,197.1-275.6,290.9-382.8,344.5C1457.1,4378.4,1296.3,4399.5,1198.7,4374.6z"/><path fill="black" d="M100,563.7v-2603.1h153.1h153.1v1837.5v1837.5h459.4H1325V759v-874.7L1631.2-422l306.2-306.3v-501.5v-503.4h-459.4h-459.4v-306.3v-306.3H559.4H100v-1225v-1225h2603.1h2603.1v153.1v153.1h-2450h-2450v918.8v918.7h3521.9H7450v-459.4v-459.4h153.1h153.1v612.5v612.5H6301.6H4846.9v306.3v306.3h-382.8h-382.8v612.5v612.5H3775h-306.3v306.3v306.3h-153.1h-153.1v-306.3v-306.3h-153.1h-153.1v612.5v612.5h-153.1H2550V104.3v-612.5h-197.1h-195.2L1893.5-244L1631.2,18.2v1575.3v1573.4H865.6H100V563.7z M1325,2707.5v-153.1H865.6H406.2v153.1v153.1h459.4H1325V2707.5z M1325,2095v-153.1H865.6H406.2V2095v153.1h459.4H1325V2095z M3775-1273.8v-459.4h-765.6h-765.6v459.4v459.4h765.6H3775V-1273.8z M4540.6-2192.5v-153.1H2932.8H1325v153.1v153.1h1607.8h1607.8V-2192.5z"/><path fill="black" d="M2550-1273.8v-153.1h153.1h153.1v153.1v153.1h-153.1H2550V-1273.8z"/><path fill="black" d="M3162.5-1273.8v-153.1h153.1h153.1v153.1v153.1h-153.1h-153.1V-1273.8z"/><path fill="black" d="M7017.4,2843.4c-93.8-23-254.6-118.7-315.8-187.6c-30.6-36.4-78.5-109.1-107.2-164.6c-44-86.1-51.7-128.2-59.3-323.5l-7.7-225.9h153.1h153.1l7.7,218.2c3.8,185.7,11.5,227.8,45.9,273.7c72.8,99.5,143.6,120.6,415.4,120.6h243.1l-42.1-80.4c-34.5-67-42.1-124.4-49.8-306.3l-7.7-225.9h155h155V2139c0,287.1,67,392.4,264.1,411.5c126.3,11.5,183.8-23,333-191.4c281.4-321.6,415.4-407.7,627.8-407.7c164.6,0,302.4,67,444.1,216.3c59.3,59.3,160.8,166.5,229.7,237.4c84.2,88,143.6,134,183.8,141.6l61.3,13.4v151.2v153.1l-70.8-11.5c-178-32.5-321.6-137.8-549.3-402c-132.1-153.1-206.7-202.9-298.6-202.9s-166.5,49.8-298.6,202.9c-174.2,201-275.6,290.9-390.5,348.4l-105.3,51.7l-555.1,3.8C7327.5,2856.8,7050,2851,7017.4,2843.4z"/><path fill="black" d="M5608.7,607.7L5601-422l-80.4-313.9c-76.6-294.8-223.9-817.3-310.1-1092.9c-21-68.9-38.3-134-38.3-145.5c0-17.2,264.1-114.8,275.6-99.5c7.6,7.7,122.5,394.3,220.1,733.1c95.7,335,162.7,601,204.8,819.2l32.5,166.5h1238.4h1240.3l13.4-109.1c49.8-405.8,325.4-1207.8,861.3-2503.6c216.3-522.5,335-834.5,335-880.5c0-24.9-109.1-28.7-765.6-28.7h-765.6V-4030v-153.1h765.6h765.6v-153.1v-153.1h-765.6h-765.6v-153.1v-153.1h918.8H9900v478.5c0,478.5,0,478.5-57.4,656.5C9812-3563,9699-3268.2,9591.8-3006c-501.5,1242.2-675.7,1711.2-790.5,2120.8C8675-439.2,8675-431.6,8675,651.8v983.8H7143.7H5614.4L5608.7,607.7z M8368.7,1176.2v-153.1h-1225h-1225v153.1v153.1h1225h1225V1176.2z M8368.7,334V-48.8h-1225h-1225V334v382.8h1225h1225V334z"/><path fill="black" d="M712.5,870V716.8h153.1h153.1V870v153.1H865.6H712.5V870z"/><path fill="black" d="M712.5,257.5V104.3h153.1h153.1v153.1v153.1H865.6H712.5V257.5z"/><path fill="black" d="M712.5-355v-153.1h153.1h153.1V-355v153.1H865.6H712.5V-355z"/><path fill="black" d="M712.5-4030v-153.1h459.4h459.4v153.1v153.1h-459.4H712.5V-4030z"/><path fill="black" d="M1937.5-4030v-153.1h459.4h459.4v153.1v153.1h-459.4h-459.4V-4030z"/><path fill="black" d="M3162.5-4030v-153.1h459.4h459.4v153.1v153.1h-459.4h-459.4V-4030z"/><path fill="black" d="M4387.5-4030v-153.1h459.4h459.4v153.1v153.1h-459.4h-459.4V-4030z"/><path fill="black" d="M5612.5-4336.3v-459.4h1071.9h1071.9v459.4v459.4H6684.4H5612.5V-4336.3z M7450-4336.3v-153.1h-765.6h-765.6v153.1v153.1h765.6H7450V-4336.3z"/></g></g>
</svg>