<?xml version="1.0" encoding="utf-8"?>
<!-- Svg Vector Icons : http://www.onlinewebfonts.com/icon -->
<!DOCTYPE svg PUBLIC "-//W3C//DTD SVG 1.1//EN" "http://www.w3.org/Graphics/SVG/1.1/DTD/svg11.dtd">
<svg version="1.1" xmlns="http://www.w3.org/2000/svg" xmlns:xlink="http://www.w3.org/1999/xlink" x="0px" y="0px" viewBox="0 0 1000 1000" enable-background="new 0 0 1000 1000" xml:space="preserve">
<metadata> Svg Vector Icons : http://www.onlinewebfonts.com/icon </metadata>
<g><path fill="black" d="M386.1,990c-4.6,0-9.2-0.9-13.6-2.8L249.8,935c-15.9-6.8-24.5-24.3-20-41l23.2-86.5c-20.2-16.3-38.9-34.7-55.7-55L106,775.1c-16.9,4.1-34.1-4.7-40.6-20.8L15.5,630.6c-6.5-16-0.1-34.4,14.9-43.1l77.7-44.8c-2.9-25.9-3.1-52-0.7-78.2L26.8,416c-14.8-9-20.8-27.5-14-43.5L65,249.8c6.7-15.9,24.3-24.5,41-20l86.4,23.2c16.3-20.2,34.7-38.8,55-55.7L224.7,106c-4.2-16.8,4.7-34.1,20.8-40.6l123.7-49.9c16.1-6.3,34.4-0.1,43.1,14.9l44.8,77.7c25.9-2.8,51.9-3,78.2-0.6l48.7-80.6c9-14.8,27.5-20.9,43.3-14l122.7,52.2c15.9,6.8,24.5,24.3,20,41l-23.2,86.4c20.2,16.3,38.9,34.7,55.8,55.1l91.2-22.7c16.8-4,34.1,4.7,40.6,20.7l49.9,123.7c6.5,16.1,0.1,34.5-14.9,43.1l-77.6,44.8c2.8,25.9,3.1,52,0.6,78.2l80.6,48.7c14.9,8.9,20.9,27.5,14,43.3L935,750.2c-6.8,15.9-24.1,24.1-41,20L807.5,747c-16.3,20.3-34.7,38.9-55,55.8l22.6,91.2c4.2,16.8-4.7,34.1-20.8,40.6l-123.7,49.9c-16,6.5-34.5,0.1-43.1-14.9l-44.8-77.6c-25.9,2.7-52.1,2.9-78.2,0.6l-48.6,80.6C409.5,983.8,398,990,386.1,990z M304.8,882.8l67.1,28.6l44.6-74c7.2-12.1,21.3-18.7,35-16.4c34.8,5.2,69.9,4.8,103.6-1c14.4-2.9,28.8,4.3,36,16.8l41.4,71.8l67.7-27.3l-20.8-83.8c-3.4-13.6,1.8-28,13.1-36.3c28.5-21,53-45.8,72.7-74c8.4-12,23.3-17.1,37.5-13.6l79.9,21.5l28.6-67.1l-74-44.7c-12.1-7.2-18.6-21.1-16.4-34.9c5.2-34.8,4.9-69.7-1-103.6c-2.5-14.4,4.2-28.8,16.8-36.1l71.8-41.4l-27.3-67.7l-83.8,20.8c-13.6,3.3-28-1.8-36.3-13.1c-21.1-28.5-45.9-53-74-72.7c-11.9-8.4-17.3-23.4-13.5-37.5l21.4-79.9l-67.1-28.6l-44.7,74c-7.2,12-21.1,18.5-34.9,16.4c-34.8-5.2-69.7-4.8-103.6,1c-14.6,2.6-28.8-4.3-36.1-16.9l-41.4-71.8l-67.7,27.3l20.8,83.9c3.4,13.6-1.8,28-13.1,36.4c-28.5,20.9-52.9,45.8-72.7,73.9c-8.4,11.8-23.4,17.4-37.4,13.6l-79.9-21.4L88.6,372l74,44.6c12,7.2,18.5,21.1,16.4,35c-5.2,34.7-4.9,69.5,1,103.6c2.5,14.4-4.2,28.8-16.9,36.1l-71.8,41.3l27.3,67.7l83.9-20.8c13.4-3.3,28,1.7,36.4,13.1c20.9,28.5,45.8,53,73.9,72.7c11.9,8.4,17.3,23.4,13.6,37.4L304.8,882.8z M499.9,769.2c-36.2,0-71.7-7.2-105.3-21.6c-66.1-28.1-117.4-80.3-144.3-147c-26.8-66.7-26.1-139.8,2-206c42.3-99.5,139.6-163.8,247.8-163.8c36.2,0,71.6,7.2,105.3,21.6c66.2,28.2,117.4,80.4,144.3,147.1c26.8,66.7,26.1,139.8-2,206C705.3,704.9,608.1,769.2,499.9,769.2z M500.1,300.3c-80.2,0-152.4,47.7-183.8,121.5c-20.9,49.1-21.4,103.3-1.5,152.8c20,49.4,57.9,88.2,107,109c25,10.6,51.2,16,78.1,16c80.2,0,152.3-47.7,183.8-121.5c20.9-49.1,21.4-103.4,1.5-152.8c-20-49.4-57.9-88.2-107-109C553.2,305.7,526.9,300.3,500.1,300.3z"/></g>
</svg>