<?xml version="1.0" encoding="utf-8"?>
<!-- Generator: Adobe Illustrator 25.2.0, SVG Export Plug-In . SVG Version: 6.00 Build 0)  -->
<svg version="1.1" id="Layer_1" xmlns="http://www.w3.org/2000/svg" xmlns:xlink="http://www.w3.org/1999/xlink" x="0px" y="0px"
	 viewBox="0 0 87 87" style="enable-background:new 0 0 87 87;" xml:space="preserve">
<style type="text/css">
	.st0{fill:#4dd0e1;}
	.st1{fill:none;}
	.st2{fill:black;}
	.st3{fill:black;}
</style>
<g id="icon-gas" transform="translate(-999 -5280)">
	<circle id="circle" class="st0" cx="1042.5" cy="5323.5" r="43.5"/>
	<g id="circle-2" transform="translate(1013 5294)">
		<circle class="st1" cx="29.5" cy="29.5" r="29.5"/>
		<path class="st2" d="M29.5,59C13.2,59,0,45.8,0,29.5S13.2,0,29.5,0S59,13.2,59,29.5S45.8,59,29.5,59z M29.5,2.6
			C14.7,2.6,2.6,14.7,2.6,29.5s12.1,26.9,26.9,26.9s26.9-12.1,26.9-26.9S44.3,2.6,29.5,2.6z"/>
	</g>
	<path class="st3" d="M1042.3,5326.9l-2.1-1.4l1.1-2.6l9-22.8l1,0.2c2.1,0.4,4,1.3,5.7,2.7c3.1,2.5,3.1,4.9,3.1,5.2l0,0.5
		L1042.3,5326.9z M1051.9,5303.1l-6.7,17.1l12.2-12.6c-0.2-0.5-0.6-1.5-2-2.6C1054.3,5304.1,1053.1,5303.5,1051.9,5303.1z"/>
	<path class="st3" d="M1034.8,5347.5l-1-0.2c-2.1-0.4-4-1.3-5.7-2.7c-3.1-2.5-3.1-4.9-3.1-5.2l0-0.5l17.7-18.3l2.1,1.4l-1.2,2.6
		L1034.8,5347.5z M1027.7,5340c0.2,0.5,0.6,1.5,2,2.6c1,0.9,2.2,1.5,3.4,1.9l6.7-17.1L1027.7,5340z"/>
	<path class="st3" d="M1040.1,5325.8l-0.5-2.5l2.6-1l22.5-9.8l0.6,0.9c1.2,1.7,2,3.8,2.1,5.9c0.5,4-1.3,5.6-1.5,5.8l-0.4,0.3
		L1040.1,5325.8z M1063.8,5315.8l-16.8,7.3l17.6-0.3c0.3-0.5,0.6-1.5,0.4-3.3C1064.8,5318.2,1064.4,5316.9,1063.8,5315.8z"/>
	<path class="st3" d="M1058.3,5341.3c-0.1,0-0.1,0-0.1,0l-0.5,0l-18.3-17.7l1.4-2.1l2.6,1.1l22.8,9l-0.2,1c-0.4,2.1-1.3,4-2.7,5.7
		C1061.1,5341.1,1058.9,5341.3,1058.3,5341.3z M1046.1,5326.4l12.6,12.2c0.5-0.2,1.5-0.6,2.6-2c0.9-1,1.5-2.2,1.9-3.4L1046.1,5326.4
		z"/>
	<path class="st3" d="M1044.2,5326.2l-2.6-1.2l-22.8-9l0.2-1c0.4-2.1,1.3-4,2.7-5.7c2.5-3.1,4.9-3.1,5.2-3.1l0.5,0l18.3,17.7
		L1044.2,5326.2z M1021.8,5314.5l17.1,6.7l-12.6-12.2c-0.5,0.2-1.5,0.6-2.6,2C1022.8,5312.1,1022.2,5313.2,1021.8,5314.5z"/>
	<path class="st3" d="M1020.3,5335.1l-0.6-0.9c-1.2-1.7-2-3.8-2.1-5.9c-0.5-4,1.3-5.6,1.5-5.8l0.4-0.3l25.5-0.4l0.5,2.5l-2.6,1
		L1020.3,5335.1z M1020.6,5324.8c-0.3,0.5-0.6,1.5-0.4,3.3c0.1,1.3,0.5,2.6,1.1,3.8l16.8-7.3L1020.6,5324.8z"/>
	<path class="st3" d="M1045.8,5348.8c-3,0-4.4-1.4-4.5-1.6l-0.3-0.4l-0.4-25.5l2.5-0.5l1,2.6l9.8,22.5l-0.9,0.6
		c-1.7,1.2-3.8,2-5.9,2.1C1046.6,5348.8,1046.2,5348.8,1045.8,5348.8z M1043.5,5345.8c0.5,0.3,1.5,0.6,3.3,0.4
		c1.3-0.1,2.6-0.5,3.8-1.1l-7.3-16.8L1043.5,5345.8z"/>
	<path class="st3" d="M1042,5326.7l-1-2.6l-9.8-22.5l0.9-0.6c1.7-1.2,3.8-2,5.9-2.1c4-0.5,5.6,1.3,5.8,1.5l0.3,0.4l0.4,25.5
		L1042,5326.7z M1034.5,5302.6l7.3,16.8l-0.3-17.6c-0.5-0.3-1.5-0.6-3.3-0.4C1036.9,5301.6,1035.6,5301.9,1034.5,5302.6z"/>
	<g id="circle-3" transform="translate(1037 5318)">
		<circle class="st0" cx="5.5" cy="5.5" r="5.5"/>
		<path class="st2" d="M5.5,11C2.5,11,0,8.5,0,5.5C0,2.5,2.5,0,5.5,0c3,0,5.5,2.5,5.5,5.5C11,8.5,8.5,11,5.5,11z M5.5,2.6
			c-1.6,0-2.9,1.3-2.9,2.9c0,1.6,1.3,2.9,2.9,2.9c1.6,0,2.9-1.3,2.9-2.9C8.4,3.9,7.1,2.6,5.5,2.6z"/>
	</g>
</g>
</svg>
